<?xml version="1.0" encoding="UTF-8" standalone="no"?>
<!DOCTYPE svg PUBLIC "-//W3C//DTD SVG 1.1//EN"
 "http://www.w3.org/Graphics/SVG/1.1/DTD/svg11.dtd">
<!-- Generated by graphviz version 2.43.0 (0)
 -->
<!-- Title: command_line Pages: 1 -->
<svg width="341pt" height="1455pt"
 viewBox="0.00 0.00 341.00 1455.00" xmlns="http://www.w3.org/2000/svg" xmlns:xlink="http://www.w3.org/1999/xlink">
<g id="graph0" class="graph" transform="scale(1 1) rotate(0) translate(4 1451)">
<title>command_line</title>
<polygon fill="white" stroke="transparent" points="-4,4 -4,-1451 337,-1451 337,4 -4,4"/>
<g id="clust1" class="cluster">
<title>cluster_context_free</title>
<polygon fill="none" stroke="black" points="90,-662 90,-1439 196,-1439 196,-662 90,-662"/>
<text text-anchor="middle" x="143" y="-1423.8" font-family="Times,serif" font-size="14.00">Context&#45;free</text>
</g>
<g id="clust2" class="cluster">
<title>cluster_context</title>
<polygon fill="none" stroke="black" points="101.5,-417 101.5,-654 184.5,-654 184.5,-417 101.5,-417"/>
<text text-anchor="middle" x="143" y="-638.8" font-family="Times,serif" font-size="14.00">Context</text>
</g>
<g id="clust3" class="cluster">
<title>cluster_model</title>
<polygon fill="none" stroke="black" points="227.5,-851 227.5,-1088 313.5,-1088 313.5,-851 227.5,-851"/>
<text text-anchor="middle" x="270.5" y="-1072.8" font-family="Times,serif" font-size="14.00">Model</text>
</g>
<g id="clust4" class="cluster">
<title>cluster_source</title>
<polygon fill="none" stroke="black" points="227.5,-91 227.5,-274 313.5,-274 313.5,-91 227.5,-91"/>
<text text-anchor="middle" x="270.5" y="-258.8" font-family="Times,serif" font-size="14.00">Source</text>
</g>
<g id="clust5" class="cluster">
<title>cluster_project</title>
<polygon fill="none" stroke="black" points="222.5,-282 222.5,-843 318.5,-843 318.5,-282 222.5,-282"/>
<text text-anchor="middle" x="270.5" y="-827.8" font-family="Times,serif" font-size="14.00">Project</text>
</g>
<g id="clust8" class="cluster">
<title>cluster_util</title>
<polygon fill="none" stroke="black" points="216,-8 216,-83 325,-83 325,-8 216,-8"/>
<text text-anchor="middle" x="270.5" y="-67.8" font-family="Times,serif" font-size="14.00">Util</text>
</g>
<!-- datum -->
<g id="node1" class="node">
<title>datum</title>
<polygon fill="none" stroke="black" points="62,-949 0,-949 0,-913 62,-913 62,-949"/>
<text text-anchor="middle" x="31" y="-927.3" font-family="Times,serif" font-size="14.00">datum</text>
</g>
<!-- convert -->
<g id="node2" class="node">
<title>convert</title>
<polygon fill="none" stroke="black" points="178.5,-1408 107.5,-1408 107.5,-1372 178.5,-1372 178.5,-1408"/>
<text text-anchor="middle" x="143" y="-1386.3" font-family="Times,serif" font-size="14.00">convert</text>
</g>
<!-- datum&#45;&gt;convert -->
<g id="edge1" class="edge">
<title>datum&#45;&gt;convert</title>
<path fill="none" stroke="black" d="M34.42,-949.01C45.4,-1030.77 90,-1363 90,-1363 90,-1363 93.35,-1364.74 98.35,-1367.33"/>
<polygon fill="black" stroke="black" points="96.83,-1370.49 107.32,-1371.99 100.05,-1364.28 96.83,-1370.49"/>
</g>
<!-- detect -->
<g id="node3" class="node">
<title>detect</title>
<polygon fill="none" stroke="black" points="174,-1354 112,-1354 112,-1318 174,-1318 174,-1354"/>
<text text-anchor="middle" x="143" y="-1332.3" font-family="Times,serif" font-size="14.00">detect</text>
</g>
<!-- datum&#45;&gt;detect -->
<g id="edge2" class="edge">
<title>datum&#45;&gt;detect</title>
<path fill="none" stroke="black" d="M34.8,-949.23C46.38,-1024.74 90,-1309 90,-1309 90,-1309 95.33,-1311.77 102.57,-1315.53"/>
<polygon fill="black" stroke="black" points="101.26,-1318.79 111.75,-1320.29 104.49,-1312.58 101.26,-1318.79"/>
</g>
<!-- compare -->
<g id="node4" class="node">
<title>compare</title>
<polygon fill="none" stroke="black" points="182,-1300 104,-1300 104,-1264 182,-1264 182,-1300"/>
<text text-anchor="middle" x="143" y="-1278.3" font-family="Times,serif" font-size="14.00">compare</text>
</g>
<!-- datum&#45;&gt;compare -->
<g id="edge3" class="edge">
<title>datum&#45;&gt;compare</title>
<path fill="none" stroke="black" d="M35.28,-949.35C47.55,-1017.89 90,-1255 90,-1255 90,-1255 93.35,-1256.74 98.35,-1259.33"/>
<polygon fill="black" stroke="black" points="96.83,-1262.49 107.32,-1263.99 100.05,-1256.28 96.83,-1262.49"/>
</g>
<!-- dinfo -->
<g id="node5" class="node">
<title>dinfo</title>
<polygon fill="none" stroke="black" points="170,-1246 116,-1246 116,-1210 170,-1210 170,-1246"/>
<text text-anchor="middle" x="143" y="-1224.3" font-family="Times,serif" font-size="14.00">dinfo</text>
</g>
<!-- datum&#45;&gt;dinfo -->
<g id="edge4" class="edge">
<title>datum&#45;&gt;dinfo</title>
<path fill="none" stroke="black" d="M35.9,-949.13C48.9,-1009.67 90,-1201 90,-1201 90,-1201 97.5,-1204.9 106.81,-1209.73"/>
<polygon fill="black" stroke="black" points="105.21,-1212.84 115.7,-1214.34 108.43,-1206.63 105.21,-1212.84"/>
</g>
<!-- download -->
<g id="node6" class="node">
<title>download</title>
<polygon fill="none" stroke="black" points="185.5,-1192 100.5,-1192 100.5,-1156 185.5,-1156 185.5,-1192"/>
<text text-anchor="middle" x="143" y="-1170.3" font-family="Times,serif" font-size="14.00">download</text>
</g>
<!-- datum&#45;&gt;download -->
<g id="edge5" class="edge">
<title>datum&#45;&gt;download</title>
<path fill="none" stroke="black" d="M36.85,-949.04C50.78,-1000.96 90,-1147 90,-1147 90,-1147 93.35,-1148.74 98.35,-1151.33"/>
<polygon fill="black" stroke="black" points="96.83,-1154.49 107.32,-1155.99 100.05,-1148.28 96.83,-1154.49"/>
</g>
<!-- explain -->
<g id="node7" class="node">
<title>explain</title>
<polygon fill="none" stroke="black" points="177,-1138 109,-1138 109,-1102 177,-1102 177,-1138"/>
<text text-anchor="middle" x="143" y="-1116.3" font-family="Times,serif" font-size="14.00">explain</text>
</g>
<!-- datum&#45;&gt;explain -->
<g id="edge6" class="edge">
<title>datum&#45;&gt;explain</title>
<path fill="none" stroke="black" d="M38.54,-949.27C53.71,-991.64 90,-1093 90,-1093 90,-1093 93.87,-1095.01 99.51,-1097.94"/>
<polygon fill="black" stroke="black" points="98.29,-1101.25 108.77,-1102.75 101.51,-1095.03 98.29,-1101.25"/>
</g>
<!-- filter -->
<g id="node8" class="node">
<title>filter</title>
<polygon fill="none" stroke="black" points="170,-1084 116,-1084 116,-1048 170,-1048 170,-1084"/>
<text text-anchor="middle" x="143" y="-1062.3" font-family="Times,serif" font-size="14.00">filter</text>
</g>
<!-- datum&#45;&gt;filter -->
<g id="edge7" class="edge">
<title>datum&#45;&gt;filter</title>
<path fill="none" stroke="black" d="M41.84,-949.32C58.39,-980.13 90,-1039 90,-1039 90,-1039 97.5,-1042.9 106.81,-1047.73"/>
<polygon fill="black" stroke="black" points="105.21,-1050.84 115.7,-1052.34 108.43,-1044.63 105.21,-1050.84"/>
</g>
<!-- generate -->
<g id="node9" class="node">
<title>generate</title>
<polygon fill="none" stroke="black" points="183,-1030 103,-1030 103,-994 183,-994 183,-1030"/>
<text text-anchor="middle" x="143" y="-1008.3" font-family="Times,serif" font-size="14.00">generate</text>
</g>
<!-- datum&#45;&gt;generate -->
<g id="edge8" class="edge">
<title>datum&#45;&gt;generate</title>
<path fill="none" stroke="black" d="M51.64,-949.28C68.46,-964.95 90,-985 90,-985 90,-985 93.35,-986.74 98.35,-989.33"/>
<polygon fill="black" stroke="black" points="96.83,-992.49 107.32,-993.99 100.05,-986.28 96.83,-992.49"/>
</g>
<!-- merge -->
<g id="node10" class="node">
<title>merge</title>
<polygon fill="none" stroke="black" points="174,-976 112,-976 112,-940 174,-940 174,-976"/>
<text text-anchor="middle" x="143" y="-954.3" font-family="Times,serif" font-size="14.00">merge</text>
</g>
<!-- datum&#45;&gt;merge -->
<g id="edge9" class="edge">
<title>datum&#45;&gt;merge</title>
<path fill="none" stroke="black" d="M62.06,-938.38C74.43,-941.41 88.93,-944.97 102.16,-948.22"/>
<polygon fill="black" stroke="black" points="101.43,-951.65 111.98,-950.63 103.1,-944.85 101.43,-951.65"/>
</g>
<!-- patch -->
<g id="node11" class="node">
<title>patch</title>
<polygon fill="none" stroke="black" points="171,-922 115,-922 115,-886 171,-886 171,-922"/>
<text text-anchor="middle" x="143" y="-900.3" font-family="Times,serif" font-size="14.00">patch</text>
</g>
<!-- datum&#45;&gt;patch -->
<g id="edge10" class="edge">
<title>datum&#45;&gt;patch</title>
<path fill="none" stroke="black" d="M62.06,-923.62C75.37,-920.36 91.15,-916.48 105.16,-913.04"/>
<polygon fill="black" stroke="black" points="106.11,-916.41 114.99,-910.63 104.44,-909.62 106.11,-916.41"/>
</g>
<!-- search -->
<g id="node12" class="node">
<title>search</title>
<polygon fill="none" stroke="black" points="175,-868 111,-868 111,-832 175,-832 175,-868"/>
<text text-anchor="middle" x="143" y="-846.3" font-family="Times,serif" font-size="14.00">search</text>
</g>
<!-- datum&#45;&gt;search -->
<g id="edge11" class="edge">
<title>datum&#45;&gt;search</title>
<path fill="none" stroke="black" d="M51.64,-912.72C68.46,-897.05 90,-877 90,-877 90,-877 94.83,-874.49 101.55,-871"/>
<polygon fill="black" stroke="black" points="103.59,-873.89 110.85,-866.17 100.36,-867.68 103.59,-873.89"/>
</g>
<!-- stats -->
<g id="node13" class="node">
<title>stats</title>
<polygon fill="none" stroke="black" points="170,-814 116,-814 116,-778 170,-778 170,-814"/>
<text text-anchor="middle" x="143" y="-792.3" font-family="Times,serif" font-size="14.00">stats</text>
</g>
<!-- datum&#45;&gt;stats -->
<g id="edge12" class="edge">
<title>datum&#45;&gt;stats</title>
<path fill="none" stroke="black" d="M41.84,-912.68C58.39,-881.87 90,-823 90,-823 90,-823 97.5,-819.1 106.81,-814.27"/>
<polygon fill="black" stroke="black" points="108.43,-817.37 115.7,-809.66 105.21,-811.16 108.43,-817.37"/>
</g>
<!-- transform -->
<g id="node14" class="node">
<title>transform</title>
<polygon fill="none" stroke="black" points="187,-760 99,-760 99,-724 187,-724 187,-760"/>
<text text-anchor="middle" x="143" y="-738.3" font-family="Times,serif" font-size="14.00">transform</text>
</g>
<!-- datum&#45;&gt;transform -->
<g id="edge13" class="edge">
<title>datum&#45;&gt;transform</title>
<path fill="none" stroke="black" d="M38.54,-912.73C53.71,-870.36 90,-769 90,-769 90,-769 93.35,-767.26 98.35,-764.67"/>
<polygon fill="black" stroke="black" points="100.05,-767.72 107.32,-760.01 96.83,-761.51 100.05,-767.72"/>
</g>
<!-- validate -->
<g id="node15" class="node">
<title>validate</title>
<polygon fill="none" stroke="black" points="180,-706 106,-706 106,-670 180,-670 180,-706"/>
<text text-anchor="middle" x="143" y="-684.3" font-family="Times,serif" font-size="14.00">validate</text>
</g>
<!-- datum&#45;&gt;validate -->
<g id="edge14" class="edge">
<title>datum&#45;&gt;validate</title>
<path fill="none" stroke="black" d="M36.85,-912.96C50.78,-861.04 90,-715 90,-715 90,-715 93.35,-713.26 98.35,-710.67"/>
<polygon fill="black" stroke="black" points="100.05,-713.72 107.32,-706.01 96.83,-707.51 100.05,-713.72"/>
</g>
<!-- model -->
<g id="node16" class="node">
<title>model</title>
<polygon fill="none" stroke="black" points="173,-623 113,-623 113,-587 173,-587 173,-623"/>
<text text-anchor="middle" x="143" y="-601.3" font-family="Times,serif" font-size="14.00">model</text>
</g>
<!-- datum&#45;&gt;model -->
<g id="edge15" class="edge">
<title>datum&#45;&gt;model</title>
<path fill="none" stroke="black" d="M35.9,-912.66C48.9,-851.45 90,-658 90,-658 90,-658 103.57,-644.17 116.85,-630.64"/>
<polygon fill="black" stroke="black" points="119.6,-632.83 124.1,-623.24 114.6,-627.93 119.6,-632.83"/>
</g>
<!-- project -->
<g id="node17" class="node">
<title>project</title>
<polygon fill="none" stroke="black" points="176.5,-569 109.5,-569 109.5,-533 176.5,-533 176.5,-569"/>
<text text-anchor="middle" x="143" y="-547.3" font-family="Times,serif" font-size="14.00">project</text>
</g>
<!-- datum&#45;&gt;project -->
<g id="edge16" class="edge">
<title>datum&#45;&gt;project</title>
<path fill="none" stroke="black" d="M35.04,-912.52C46.97,-839.89 90,-578 90,-578 90,-578 94.21,-575.81 100.24,-572.68"/>
<polygon fill="black" stroke="black" points="102.1,-575.66 109.36,-567.95 98.88,-569.45 102.1,-575.66"/>
</g>
<!-- source -->
<g id="node18" class="node">
<title>source</title>
<polygon fill="none" stroke="black" points="175,-515 111,-515 111,-479 175,-479 175,-515"/>
<text text-anchor="middle" x="143" y="-493.3" font-family="Times,serif" font-size="14.00">source</text>
</g>
<!-- datum&#45;&gt;source -->
<g id="edge17" class="edge">
<title>datum&#45;&gt;source</title>
<path fill="none" stroke="black" d="M34.57,-912.99C45.79,-834.22 90,-524 90,-524 90,-524 94.83,-521.49 101.55,-518"/>
<polygon fill="black" stroke="black" points="103.59,-520.89 110.85,-513.17 100.36,-514.68 103.59,-520.89"/>
</g>
<!-- util -->
<g id="node19" class="node">
<title>util</title>
<polygon fill="none" stroke="black" points="170,-461 116,-461 116,-425 170,-425 170,-461"/>
<text text-anchor="middle" x="143" y="-439.3" font-family="Times,serif" font-size="14.00">util</text>
</g>
<!-- datum&#45;&gt;util -->
<g id="edge18" class="edge">
<title>datum&#45;&gt;util</title>
<path fill="none" stroke="black" d="M34.27,-912.93C45,-827.7 90,-470 90,-470 90,-470 97.5,-466.1 106.81,-461.27"/>
<polygon fill="black" stroke="black" points="108.43,-464.37 115.7,-456.66 105.21,-458.16 108.43,-464.37"/>
</g>
<!-- madd -->
<g id="node20" class="node">
<title>madd</title>
<polygon fill="none" stroke="black" points="297.5,-1057 243.5,-1057 243.5,-1021 297.5,-1021 297.5,-1057"/>
<text text-anchor="middle" x="270.5" y="-1035.3" font-family="Times,serif" font-size="14.00">add</text>
</g>
<!-- model&#45;&gt;madd -->
<g id="edge19" class="edge">
<title>model&#45;&gt;madd</title>
<path fill="none" stroke="black" d="M161.9,-623.24C176.94,-638.57 196,-658 196,-658 196,-658 216,-1012 216,-1012 216,-1012 224.25,-1016.17 234.28,-1021.22"/>
<polygon fill="black" stroke="black" points="232.87,-1024.44 243.38,-1025.82 236.03,-1018.19 232.87,-1024.44"/>
</g>
<!-- mremove -->
<g id="node21" class="node">
<title>mremove</title>
<polygon fill="none" stroke="black" points="305.5,-1003 235.5,-1003 235.5,-967 305.5,-967 305.5,-1003"/>
<text text-anchor="middle" x="270.5" y="-981.3" font-family="Times,serif" font-size="14.00">remove</text>
</g>
<!-- model&#45;&gt;mremove -->
<g id="edge20" class="edge">
<title>model&#45;&gt;mremove</title>
<path fill="none" stroke="black" d="M161.9,-623.24C176.94,-638.57 196,-658 196,-658 196,-658 216,-958 216,-958 216,-958 220.17,-960.11 226.19,-963.14"/>
<polygon fill="black" stroke="black" points="224.81,-966.37 235.31,-967.75 227.96,-960.12 224.81,-966.37"/>
</g>
<!-- run -->
<g id="node22" class="node">
<title>run</title>
<polygon fill="none" stroke="black" points="297.5,-949 243.5,-949 243.5,-913 297.5,-913 297.5,-949"/>
<text text-anchor="middle" x="270.5" y="-927.3" font-family="Times,serif" font-size="14.00">run</text>
</g>
<!-- model&#45;&gt;run -->
<g id="edge21" class="edge">
<title>model&#45;&gt;run</title>
<path fill="none" stroke="black" d="M161.9,-623.24C176.94,-638.57 196,-658 196,-658 196,-658 216,-904 216,-904 216,-904 224.25,-908.17 234.28,-913.22"/>
<polygon fill="black" stroke="black" points="232.87,-916.44 243.38,-917.82 236.03,-910.19 232.87,-916.44"/>
</g>
<!-- minfo -->
<g id="node23" class="node">
<title>minfo</title>
<polygon fill="none" stroke="black" points="297.5,-895 243.5,-895 243.5,-859 297.5,-859 297.5,-895"/>
<text text-anchor="middle" x="270.5" y="-873.3" font-family="Times,serif" font-size="14.00">info</text>
</g>
<!-- model&#45;&gt;minfo -->
<g id="edge22" class="edge">
<title>model&#45;&gt;minfo</title>
<path fill="none" stroke="black" d="M161.9,-623.24C176.94,-638.57 196,-658 196,-658 196,-658 216,-847 216,-847 216,-847 224.42,-851.72 234.58,-857.42"/>
<polygon fill="black" stroke="black" points="232.94,-860.51 243.38,-862.35 236.37,-854.41 232.94,-860.51"/>
</g>
<!-- add -->
<g id="node27" class="node">
<title>add</title>
<polygon fill="none" stroke="black" points="297.5,-812 243.5,-812 243.5,-776 297.5,-776 297.5,-812"/>
<text text-anchor="middle" x="270.5" y="-790.3" font-family="Times,serif" font-size="14.00">add</text>
</g>
<!-- project&#45;&gt;add -->
<g id="edge23" class="edge">
<title>project&#45;&gt;add</title>
<path fill="none" stroke="black" d="M176.64,-567.95C187.08,-573.37 196,-578 196,-578 196,-578 216,-767 216,-767 216,-767 224.25,-771.17 234.28,-776.22"/>
<polygon fill="black" stroke="black" points="232.87,-779.44 243.38,-780.82 236.03,-773.19 232.87,-779.44"/>
</g>
<!-- create -->
<g id="node28" class="node">
<title>create</title>
<polygon fill="none" stroke="black" points="301.5,-758 239.5,-758 239.5,-722 301.5,-722 301.5,-758"/>
<text text-anchor="middle" x="270.5" y="-736.3" font-family="Times,serif" font-size="14.00">create</text>
</g>
<!-- project&#45;&gt;create -->
<g id="edge24" class="edge">
<title>project&#45;&gt;create</title>
<path fill="none" stroke="black" d="M176.64,-567.95C187.08,-573.37 196,-578 196,-578 196,-578 216,-713 216,-713 216,-713 222.16,-716.11 230.29,-720.21"/>
<polygon fill="black" stroke="black" points="228.81,-723.38 239.31,-724.76 231.96,-717.13 228.81,-723.38"/>
</g>
<!-- export -->
<g id="node29" class="node">
<title>export</title>
<polygon fill="none" stroke="black" points="302,-704 239,-704 239,-668 302,-668 302,-704"/>
<text text-anchor="middle" x="270.5" y="-682.3" font-family="Times,serif" font-size="14.00">export</text>
</g>
<!-- project&#45;&gt;export -->
<g id="edge25" class="edge">
<title>project&#45;&gt;export</title>
<path fill="none" stroke="black" d="M176.64,-567.95C187.08,-573.37 196,-578 196,-578 196,-578 216,-659 216,-659 216,-659 221.92,-661.99 229.83,-665.98"/>
<polygon fill="black" stroke="black" points="228.49,-669.23 239,-670.61 231.65,-662.98 228.49,-669.23"/>
</g>
<!-- import -->
<g id="node30" class="node">
<title>import</title>
<polygon fill="none" stroke="black" points="303,-650 238,-650 238,-614 303,-614 303,-650"/>
<text text-anchor="middle" x="270.5" y="-628.3" font-family="Times,serif" font-size="14.00">import</text>
</g>
<!-- project&#45;&gt;import -->
<g id="edge26" class="edge">
<title>project&#45;&gt;import</title>
<path fill="none" stroke="black" d="M176.64,-567.95C187.08,-573.37 196,-578 196,-578 196,-578 216,-605 216,-605 216,-605 221.29,-607.67 228.54,-611.33"/>
<polygon fill="black" stroke="black" points="227.26,-614.6 237.76,-615.98 230.41,-608.35 227.26,-614.6"/>
</g>
<!-- remove -->
<g id="node31" class="node">
<title>remove</title>
<polygon fill="none" stroke="black" points="305.5,-596 235.5,-596 235.5,-560 305.5,-560 305.5,-596"/>
<text text-anchor="middle" x="270.5" y="-574.3" font-family="Times,serif" font-size="14.00">remove</text>
</g>
<!-- project&#45;&gt;remove -->
<g id="edge27" class="edge">
<title>project&#45;&gt;remove</title>
<path fill="none" stroke="black" d="M176.65,-558.02C191.42,-561.2 209.11,-565.01 225.07,-568.44"/>
<polygon fill="black" stroke="black" points="224.75,-571.95 235.26,-570.63 226.22,-565.11 224.75,-571.95"/>
</g>
<!-- checkout -->
<g id="node32" class="node">
<title>checkout</title>
<polygon fill="none" stroke="black" points="310.5,-542 230.5,-542 230.5,-506 310.5,-506 310.5,-542"/>
<text text-anchor="middle" x="270.5" y="-520.3" font-family="Times,serif" font-size="14.00">checkout</text>
</g>
<!-- project&#45;&gt;checkout -->
<g id="edge28" class="edge">
<title>project&#45;&gt;checkout</title>
<path fill="none" stroke="black" d="M176.65,-543.98C189.98,-541.11 205.7,-537.73 220.37,-534.57"/>
<polygon fill="black" stroke="black" points="221.27,-537.96 230.31,-532.43 219.8,-531.11 221.27,-537.96"/>
</g>
<!-- commit -->
<g id="node33" class="node">
<title>commit</title>
<polygon fill="none" stroke="black" points="305.5,-488 235.5,-488 235.5,-452 305.5,-452 305.5,-488"/>
<text text-anchor="middle" x="270.5" y="-466.3" font-family="Times,serif" font-size="14.00">commit</text>
</g>
<!-- project&#45;&gt;commit -->
<g id="edge29" class="edge">
<title>project&#45;&gt;commit</title>
<path fill="none" stroke="black" d="M176.64,-534.05C187.08,-528.63 196,-524 196,-524 196,-524 216,-497 216,-497 216,-497 220.17,-494.89 226.19,-491.86"/>
<polygon fill="black" stroke="black" points="227.96,-494.88 235.31,-487.25 224.81,-488.63 227.96,-494.88"/>
</g>
<!-- log -->
<g id="node34" class="node">
<title>log</title>
<polygon fill="none" stroke="black" points="297.5,-434 243.5,-434 243.5,-398 297.5,-398 297.5,-434"/>
<text text-anchor="middle" x="270.5" y="-412.3" font-family="Times,serif" font-size="14.00">log</text>
</g>
<!-- project&#45;&gt;log -->
<g id="edge30" class="edge">
<title>project&#45;&gt;log</title>
<path fill="none" stroke="black" d="M176.64,-534.05C187.08,-528.63 196,-524 196,-524 196,-524 216,-443 216,-443 216,-443 224.25,-438.83 234.28,-433.78"/>
<polygon fill="black" stroke="black" points="236.03,-436.81 243.38,-429.18 232.87,-430.56 236.03,-436.81"/>
</g>
<!-- pinfo -->
<g id="node35" class="node">
<title>pinfo</title>
<polygon fill="none" stroke="black" points="297.5,-380 243.5,-380 243.5,-344 297.5,-344 297.5,-380"/>
<text text-anchor="middle" x="270.5" y="-358.3" font-family="Times,serif" font-size="14.00">info</text>
</g>
<!-- project&#45;&gt;pinfo -->
<g id="edge31" class="edge">
<title>project&#45;&gt;pinfo</title>
<path fill="none" stroke="black" d="M176.64,-534.05C187.08,-528.63 196,-524 196,-524 196,-524 216,-389 216,-389 216,-389 224.25,-384.83 234.28,-379.78"/>
<polygon fill="black" stroke="black" points="236.03,-382.81 243.38,-375.18 232.87,-376.56 236.03,-382.81"/>
</g>
<!-- status -->
<g id="node36" class="node">
<title>status</title>
<polygon fill="none" stroke="black" points="301,-326 240,-326 240,-290 301,-290 301,-326"/>
<text text-anchor="middle" x="270.5" y="-304.3" font-family="Times,serif" font-size="14.00">status</text>
</g>
<!-- project&#45;&gt;status -->
<g id="edge32" class="edge">
<title>project&#45;&gt;status</title>
<path fill="none" stroke="black" d="M176.64,-534.05C187.08,-528.63 196,-524 196,-524 196,-524 216,-335 216,-335 216,-335 222.5,-331.72 230.97,-327.44"/>
<polygon fill="black" stroke="black" points="232.58,-330.55 239.93,-322.92 229.43,-324.3 232.58,-330.55"/>
</g>
<!-- sadd -->
<g id="node24" class="node">
<title>sadd</title>
<polygon fill="none" stroke="black" points="297.5,-243 243.5,-243 243.5,-207 297.5,-207 297.5,-243"/>
<text text-anchor="middle" x="270.5" y="-221.3" font-family="Times,serif" font-size="14.00">add</text>
</g>
<!-- source&#45;&gt;sadd -->
<g id="edge33" class="edge">
<title>source&#45;&gt;sadd</title>
<path fill="none" stroke="black" d="M175.15,-480.83C186.22,-475.08 196,-470 196,-470 196,-470 216,-278 216,-278 216,-278 229.96,-264.17 243.62,-250.64"/>
<polygon fill="black" stroke="black" points="246.45,-252.76 251.09,-243.24 241.52,-247.79 246.45,-252.76"/>
</g>
<!-- simport -->
<g id="node25" class="node">
<title>simport</title>
<polygon fill="none" stroke="black" points="303,-189 238,-189 238,-153 303,-153 303,-189"/>
<text text-anchor="middle" x="270.5" y="-167.3" font-family="Times,serif" font-size="14.00">import</text>
</g>
<!-- source&#45;&gt;simport -->
<g id="edge34" class="edge">
<title>source&#45;&gt;simport</title>
<path fill="none" stroke="black" d="M175.15,-480.83C186.22,-475.08 196,-470 196,-470 196,-470 216,-198 216,-198 216,-198 221.29,-195.33 228.54,-191.67"/>
<polygon fill="black" stroke="black" points="230.41,-194.65 237.76,-187.02 227.26,-188.4 230.41,-194.65"/>
</g>
<!-- sremove -->
<g id="node26" class="node">
<title>sremove</title>
<polygon fill="none" stroke="black" points="305.5,-135 235.5,-135 235.5,-99 305.5,-99 305.5,-135"/>
<text text-anchor="middle" x="270.5" y="-113.3" font-family="Times,serif" font-size="14.00">remove</text>
</g>
<!-- source&#45;&gt;sremove -->
<g id="edge35" class="edge">
<title>source&#45;&gt;sremove</title>
<path fill="none" stroke="black" d="M175.15,-480.83C186.22,-475.08 196,-470 196,-470 196,-470 216,-144 216,-144 216,-144 220.17,-141.89 226.19,-138.86"/>
<polygon fill="black" stroke="black" points="227.96,-141.88 235.31,-134.25 224.81,-135.63 227.96,-141.88"/>
</g>
<!-- split_video -->
<g id="node37" class="node">
<title>split_video</title>
<polygon fill="none" stroke="black" points="317,-52 224,-52 224,-16 317,-16 317,-52"/>
<text text-anchor="middle" x="270.5" y="-30.3" font-family="Times,serif" font-size="14.00">split_video</text>
</g>
<!-- util&#45;&gt;split_video -->
<g id="edge36" class="edge">
<title>util&#45;&gt;split_video</title>
<path fill="none" stroke="black" d="M147.67,-424.86C162.34,-352.31 216,-87 216,-87 216,-87 229.96,-73.17 243.62,-59.64"/>
<polygon fill="black" stroke="black" points="246.45,-61.76 251.09,-52.24 241.52,-56.79 246.45,-61.76"/>
</g>
</g>
</svg>
