<svg width="1280" height="720" xmlns="http://www.w3.org/2000/svg" xmlns:xlink="http://www.w3.org/1999/xlink" overflow="hidden"><defs><clipPath id="clip0"><rect x="0" y="0" width="1280" height="720"/></clipPath></defs><g clip-path="url(#clip0)"><rect x="0" y="0" width="1280" height="720" fill="#FFFFFF"/><rect x="540.5" y="560.5" width="89" height="39" stroke="#5B9BD5" stroke-linejoin="round" stroke-miterlimit="10" fill="none"/><text font-family="Calibri,Calibri_MSFontService,sans-serif" font-weight="400" font-size="24" transform="translate(550.427 587)">Project</text><path d="M312.6 474.182 578.603 557.88 578.403 558.516 312.4 474.818ZM578.431 553.982 584.862 560.199 576.03 561.613Z" fill="#4472C4"/><rect x="153.5" y="178.5" width="319" height="296" stroke="#2F528F" stroke-width="1.33333" stroke-miterlimit="8" fill="#F2F2F2"/><rect x="243.5" y="183.5" width="139" height="39" stroke="#A6A6A6" stroke-linejoin="round" stroke-miterlimit="10" fill="none"/><text font-family="Calibri,Calibri_MSFontService,sans-serif" font-weight="400" font-size="24" transform="translate(270.382 210)">Source 1</text><rect x="302.5" y="295.5" width="140" height="37" stroke="#2F528F" stroke-width="1.33333" stroke-miterlimit="8" fill="#4472C4"/><text fill="#FFFFFF" font-family="Calibri,Calibri_MSFontService,sans-serif" font-weight="400" font-size="24" transform="translate(346.912 322)">Filter</text><rect x="302.5" y="350.5" width="140" height="37" stroke="#2F528F" stroke-width="1.33333" stroke-miterlimit="8" fill="#4472C4"/><text fill="#FFFFFF" font-family="Calibri,Calibri_MSFontService,sans-serif" font-weight="400" font-size="24" transform="translate(322.801 376)">Transform</text><rect x="302.5" y="403.5" width="140" height="37" stroke="#2F528F" stroke-width="1.33333" stroke-miterlimit="8" fill="#4472C4"/><text fill="#FFFFFF" font-family="Calibri,Calibri_MSFontService,sans-serif" font-weight="400" font-size="24" transform="translate(322.801 429)">Transform</text><path d="M372.833 276.5 372.834 288.937 372.167 288.937 372.167 276.5ZM376.5 287.604 372.5 295.604 368.5 287.604Z" fill="#4472C4"/><path d="M0.333333-1.00418e-05 0.333657 10.7583-0.333009 10.7583-0.333333 1.00418e-05ZM4.00028 9.42487 0.000524934 17.425-3.99972 9.42511Z" fill="#4472C4" transform="matrix(-1 0 0 1 372.501 332.5)"/><path d="M372.833 387.5 372.833 397.253 372.167 397.253 372.167 387.5ZM376.5 395.92 372.5 403.92 368.5 395.92Z" fill="#4472C4"/><text font-family="Calibri,Calibri_MSFontService,sans-serif" font-weight="400" font-size="24" transform="translate(217.185 264)">s1.root<tspan font-size="24" x="-22.511" y="55">s1.</tspan>stage1<tspan font-size="24" x="-22.511" y="110">s1.stage2</tspan><tspan font-size="24" x="-22.511" y="165">s1</tspan>.stage3</text><rect x="302.5" y="238.5" width="140" height="38" stroke="#2F528F" stroke-width="1.33333" stroke-miterlimit="8" fill="#4472C4"/><text fill="#FFFFFF" font-family="Calibri,Calibri_MSFontService,sans-serif" font-weight="400" font-size="24" transform="translate(314.381 265)">Sourc<tspan font-size="24" x="54.48" y="0">e</tspan><tspan font-size="24" x="71.98" y="0">dat</tspan><tspan font-size="24" x="103.633" y="0">a</tspan></text><rect x="660.5" y="178.5" width="319" height="296" stroke="#2F528F" stroke-width="1.33333" stroke-miterlimit="8" fill="#F2F2F2"/><rect x="750.5" y="183.5" width="139" height="39" stroke="#A6A6A6" stroke-linejoin="round" stroke-miterlimit="10" fill="none"/><text font-family="Calibri,Calibri_MSFontService,sans-serif" font-weight="400" font-size="24" transform="translate(777.645 210)">Source <tspan font-size="24" x="71.98" y="0">2</tspan></text><rect x="809.5" y="295.5" width="140" height="37" stroke="#2F528F" stroke-width="1.33333" stroke-miterlimit="8" fill="#4472C4"/><text fill="#FFFFFF" font-family="Calibri,Calibri_MSFontService,sans-serif" font-weight="400" font-size="24" transform="translate(847.545 322)">Model</text><rect x="809.5" y="350.5" width="140" height="37" stroke="#2F528F" stroke-width="1.33333" stroke-miterlimit="8" fill="#4472C4"/><text fill="#FFFFFF" font-family="Calibri,Calibri_MSFontService,sans-serif" font-weight="400" font-size="24" transform="translate(830.064 376)">Transform</text><path d="M879.833 276.5 879.834 288.937 879.167 288.937 879.167 276.5ZM883.5 287.604 879.5 295.604 875.5 287.604Z" fill="#4472C4"/><path d="M0.333333-1.00418e-05 0.333657 10.7583-0.333009 10.7583-0.333333 1.00418e-05ZM4.00028 9.42487 0.000524934 17.425-3.99972 9.42511Z" fill="#4472C4" transform="matrix(-1 0 0 1 879.501 332.5)"/><text font-family="Calibri,Calibri_MSFontService,sans-serif" font-weight="400" font-size="24" transform="translate(724.448 264)">s2.root<tspan font-size="24" x="-22.511" y="55">s2.</tspan>stage1<tspan font-size="24" x="-22.511" y="110">s2.</tspan>stage2</text><rect x="809.5" y="238.5" width="140" height="38" stroke="#2F528F" stroke-width="1.33333" stroke-miterlimit="8" fill="#4472C4"/><text fill="#FFFFFF" font-family="Calibri,Calibri_MSFontService,sans-serif" font-weight="400" font-size="24" transform="translate(821.644 265)">Sourc<tspan font-size="24" x="54.48" y="0">e</tspan><tspan font-size="24" x="71.98" y="0">dat</tspan><tspan font-size="24" x="103.633" y="0">a</tspan></text><path d="M0.114244-0.313144 228.752 83.1006 228.523 83.7268-0.114244 0.313144ZM228.756 79.1992 234.901 85.6988 226.015 86.7147Z" fill="#4472C4" transform="matrix(-1 0 0 1 820.401 474.5)"/></g></svg>
