<svg width="800" height="600" xmlns="http://www.w3.org/2000/svg" xmlns:xlink="http://www.w3.org/1999/xlink" overflow="hidden"><defs><clipPath id="clip0"><rect x="0" y="0" width="1280" height="720"/></clipPath></defs><g clip-path="url(#clip0)"><rect x="0" y="0" width="1280" height="720" fill="#FFFFFF"/><path d="M403.208 166.749C397.832 152.663 425.513 139.69 465.035 137.774 481.05 136.998 497.332 138.159 511.277 141.071 526.053 131.143 560.583 127.37 588.401 132.643 593.265 133.565 597.729 134.734 601.655 136.113 613.163 127.884 641.194 124.54 664.265 128.645 670.65 129.782 676.22 131.425 680.547 133.449 699.096 125.666 731.873 124.705 753.757 131.302 762.954 134.074 769.153 137.898 771.291 142.118 801.683 145.074 819.612 156.27 811.337 167.126 810.641 168.038 809.768 168.932 808.724 169.802 833.099 181.113 827.132 197.325 795.397 206.013 785.518 208.717 773.85 210.468 761.519 211.097 761.245 223.266 733.324 233.052 699.157 232.954 687.742 232.921 676.574 231.764 666.891 229.611 655.334 243.254 615.024 250.966 576.855 246.835 560.859 245.104 547.038 241.443 537.75 236.476 498.67 244.879 447.945 240.359 424.453 226.381 424.157 226.205 423.866 226.027 423.581 225.849 398.004 226.916 374.837 220.41 371.835 211.318 370.235 206.472 374.723 201.621 384.103 198.059 361.958 193.411 354.519 183.211 367.488 175.275 374.97 170.697 388.092 167.67 402.819 167.126Z" fill="#F2F2F2" fill-rule="evenodd"/><path d="M499.612 262.625C499.612 264.481 498.108 265.986 496.252 265.986 494.395 265.986 492.891 264.481 492.891 262.625 492.891 260.769 494.395 259.264 496.252 259.264 498.108 259.264 499.612 260.769 499.612 262.625Z" fill="#F2F2F2" fill-rule="evenodd"/><path d="M508.945 257.933C508.945 261.646 505.936 264.655 502.223 264.655 498.51 264.655 495.501 261.646 495.501 257.933 495.501 254.22 498.51 251.211 502.223 251.211 505.936 251.211 508.945 254.22 508.945 257.933Z" fill="#F2F2F2" fill-rule="evenodd"/><path d="M523.564 249.088C523.564 254.656 519.049 259.171 513.481 259.171 507.912 259.171 503.397 254.656 503.397 249.088 503.397 243.519 507.912 239.004 513.481 239.004 519.049 239.004 523.564 243.519 523.564 249.088Z" fill="#F2F2F2" fill-rule="evenodd"/><path d="M403.208 166.749C397.832 152.663 425.513 139.69 465.035 137.774 481.05 136.998 497.332 138.159 511.277 141.071 526.053 131.143 560.583 127.37 588.401 132.643 593.265 133.565 597.729 134.734 601.655 136.113 613.163 127.884 641.194 124.54 664.265 128.645 670.65 129.782 676.22 131.425 680.547 133.449 699.096 125.666 731.873 124.705 753.757 131.302 762.954 134.074 769.153 137.898 771.291 142.118 801.683 145.074 819.612 156.27 811.337 167.126 810.641 168.038 809.768 168.932 808.724 169.802 833.099 181.113 827.132 197.325 795.397 206.013 785.518 208.717 773.85 210.468 761.519 211.097 761.245 223.266 733.324 233.052 699.157 232.954 687.742 232.921 676.574 231.764 666.891 229.611 655.334 243.254 615.024 250.966 576.855 246.835 560.859 245.104 547.038 241.443 537.75 236.476 498.67 244.879 447.945 240.359 424.453 226.381 424.157 226.205 423.866 226.027 423.581 225.849 398.004 226.916 374.837 220.41 371.835 211.318 370.235 206.472 374.723 201.621 384.103 198.059 361.958 193.411 354.519 183.211 367.488 175.275 374.97 170.697 388.092 167.67 402.819 167.126Z" stroke="#2F528F" stroke-width="1.33333" stroke-miterlimit="8" fill="none" fill-rule="evenodd"/><path d="M499.612 262.625C499.612 264.481 498.108 265.986 496.252 265.986 494.395 265.986 492.891 264.481 492.891 262.625 492.891 260.769 494.395 259.264 496.252 259.264 498.108 259.264 499.612 260.769 499.612 262.625Z" stroke="#2F528F" stroke-width="1.33333" stroke-miterlimit="8" fill="none" fill-rule="evenodd"/><path d="M508.945 257.933C508.945 261.646 505.936 264.655 502.223 264.655 498.51 264.655 495.501 261.646 495.501 257.933 495.501 254.22 498.51 251.211 502.223 251.211 505.936 251.211 508.945 254.22 508.945 257.933Z" stroke="#2F528F" stroke-width="1.33333" stroke-miterlimit="8" fill="none" fill-rule="evenodd"/><path d="M523.564 249.088C523.564 254.656 519.049 259.171 513.481 259.171 507.912 259.171 503.397 254.656 503.397 249.088 503.397 243.519 507.912 239.004 513.481 239.004 519.049 239.004 523.564 243.519 523.564 249.088Z" stroke="#2F528F" stroke-width="1.33333" stroke-miterlimit="8" fill="none" fill-rule="evenodd"/><path d="M411.689 199.82C402.235 200.084 392.782 199.305 384.599 197.588M435.591 224.25C431.789 224.789 427.804 225.148 423.739 225.318M537.723 235.988C534.864 234.459 532.469 232.825 530.581 231.115M669.789 223.835C669.368 225.649 668.412 227.441 666.937 229.183M726.491 190.793C747.927 194.511 761.454 202.287 761.263 210.779M808.506 169.505C805.035 172.397 799.735 174.962 793.023 177M771.354 141.698C771.945 142.866 772.219 144.051 772.171 145.237M672.473 137.569C674.49 135.936 677.162 134.416 680.405 133.055M598.286 139.72C599.109 138.371 600.399 137.063 602.127 135.828M511.222 141.042C516.268 142.096 520.936 143.364 525.124 144.819M405.636 170.724C404.535 169.424 403.723 168.096 403.21 166.75" stroke="#2F528F" stroke-width="1.33333" stroke-miterlimit="8" fill="none" fill-rule="evenodd"/><rect x="348.5" y="283.5" width="116" height="55" stroke="#2F528F" stroke-width="1.33333" stroke-miterlimit="8" fill="#4472C4"/><text fill="#FFFFFF" font-family="Calibri,Calibri_MSFontService,sans-serif" font-weight="400" font-size="24" transform="translate(371.717 318)">Project</text><rect x="431.5" y="161.5" width="115" height="55" stroke="#2F528F" stroke-width="1.33333" stroke-miterlimit="8" fill="#A6A6A6"/><text fill="#FFFFFF" font-family="Calibri,Calibri_MSFontService,sans-serif" font-weight="400" font-size="24" transform="translate(448.675 182)">Git repo <tspan font-size="24" x="-1.89999" y="29">(configs)</tspan></text><rect x="569.5" y="161.5" width="151" height="55" stroke="#2F528F" stroke-width="1.33333" stroke-miterlimit="8" fill="#A6A6A6"/><text fill="#FFFFFF" font-family="Calibri,Calibri_MSFontService,sans-serif" font-weight="400" font-size="24" transform="translate(598.849 182)">DVC repo <tspan font-size="24" x="-14.6" y="29">(heavy data</tspan>)</text><rect x="534.5" y="359.5" width="115" height="45" stroke="#2F528F" stroke-width="1.33333" stroke-miterlimit="8" fill="#4472C4"/><text fill="#FFFFFF" font-family="Calibri,Calibri_MSFontService,sans-serif" font-weight="400" font-size="24" transform="translate(551.79 389)">Source1</text><rect x="534.5" y="482.5" width="115" height="45" stroke="#2F528F" stroke-width="1.33333" stroke-miterlimit="8" fill="#4472C4"/><text fill="#FFFFFF" font-family="Calibri,Calibri_MSFontService,sans-serif" font-weight="400" font-size="24" transform="translate(551.79 512)">Source3</text><rect x="534.5" y="420.5" width="115" height="46" stroke="#2F528F" stroke-width="1.33333" stroke-miterlimit="8" fill="#4472C4"/><text fill="#FFFFFF" font-family="Calibri,Calibri_MSFontService,sans-serif" font-weight="400" font-size="24" transform="translate(551.79 451)">Source2</text><rect x="742.5" y="359.5" width="115" height="45" stroke="#2F528F" stroke-width="1.33333" stroke-miterlimit="8" fill="#4472C4"/><text fill="#FFFFFF" font-family="Calibri,Calibri_MSFontService,sans-serif" font-weight="400" font-size="24" transform="translate(788.364 389)">s3</text><rect x="742.5" y="482.5" width="115" height="45" stroke="#2F528F" stroke-width="1.33333" stroke-miterlimit="8" fill="#4472C4"/><text fill="#FFFFFF" font-family="Calibri,Calibri_MSFontService,sans-serif" font-weight="400" font-size="24" transform="translate(758.214 512)">Local <tspan font-size="24" x="55.3" y="0">dir</tspan></text><rect x="742.5" y="420.5" width="115" height="46" stroke="#2F528F" stroke-width="1.33333" stroke-miterlimit="8" fill="#4472C4"/><text fill="#FFFFFF" font-family="Calibri,Calibri_MSFontService,sans-serif" font-weight="400" font-size="24" transform="translate(776.56 451)">AWS</text><path d="M649.5 382.167 735.761 382.167 735.761 382.833 649.5 382.833ZM734.427 378.5 742.427 382.5 734.427 386.5Z" fill="#4472C4"/><path d="M649.5 443.167 735.761 443.167 735.761 443.833 649.5 443.833ZM734.427 439.5 742.427 443.5 734.427 447.5Z" fill="#4472C4"/><path d="M649.5 504.167 735.761 504.167 735.761 504.833 649.5 504.833ZM734.427 500.5 742.427 504.5 734.427 508.5Z" fill="#4472C4"/><path d="M0-0.333333 44.4252-0.333333 44.4252 120.803 43.7585 120.803 43.7585 0 44.0919 0.333333 0 0.333333ZM48.0919 119.47 44.0919 127.47 40.0919 119.47Z" fill="#4472C4" transform="matrix(1.83697e-16 1 1 -1.83697e-16 406.5 338.5)"/><path d="M0-0.333333 105.564-0.333333 105.564 120.803 104.898 120.803 104.898 0 105.231 0.333333 0 0.333333ZM109.231 119.47 105.231 127.47 101.231 119.47Z" fill="#4472C4" transform="matrix(1.83697e-16 1 1 -1.83697e-16 406.5 338.5)"/><path d="M0-0.333333 166.703-0.333333 166.703 120.803 166.037 120.803 166.037 0 166.37 0.333333 0 0.333333ZM170.37 119.47 166.37 127.47 162.37 119.47Z" fill="#4472C4" transform="matrix(1.83697e-16 1 1 -1.83697e-16 406.5 338.5)"/><text font-family="Calibri,Calibri_MSFontService,sans-serif" font-weight="400" font-size="16" transform="translate(535.201 550)">Dataset or <tspan font-size="16" x="71.0733" y="0">model</tspan><tspan font-size="24" x="-7.2124" y="-212">Data Sources</tspan><tspan font-size="24" x="221.161" y="-211">Remotes</tspan></text></g></svg>
